<?xml version="1.0" encoding="utf-8"?>
<!-- Generator: Adobe Illustrator 23.0.0, SVG Export Plug-In . SVG Version: 6.00 Build 0)  -->
<svg version="1.1" id="Layer_1" xmlns="http://www.w3.org/2000/svg" xmlns:xlink="http://www.w3.org/1999/xlink" x="0px" y="0px"
	 viewBox="0 0 1024 1024" style="enable-background:new 0 0 1024 1024;" xml:space="preserve">
<style type="text/css">
	.st0{fill:#26B9EB;}
	.st1{fill:#0F97D4;}
</style>
<g>
	<path class="st0" d="M749,622.3h132.8C834.6,777.3,690.6,890,520.2,890c-208.7,0-378-169.2-378-378c0-208.7,169.2-378,378-378
		c170.4,0,314.5,112.8,361.6,267.7H749c-41.1-85-128.1-143.6-228.8-143.6C380,258.1,266.2,371.8,266.2,512
		c0,140.2,113.7,253.9,253.9,253.9C620.9,765.9,707.9,707.3,749,622.3z"/>
	<path class="st0" d="M479.2,715.5c13.3,2.7,26.9,4.1,41,4.1c12.4,0,24.5-1.1,36.3-3.1"/>
	<path class="st0" d="M361.2,645.4c20.7,24.7,47.2,44.5,77.2,57.4"/>
	<path class="st0" d="M601.9,702.9c30.1-12.9,56.5-32.7,77.2-57.4"/>
	<g>
		<g>
			<path class="st1" d="M438.5,525.9v177c-30.1-12.9-56.5-32.7-77.2-57.4V525.9H438.5z"/>
			<path class="st1" d="M556.5,444v272.5c-11.8,2.1-23.9,3.1-36.3,3.1c-14,0-27.7-1.4-41-4.1V444H556.5z"/>
			<path class="st1" d="M679.1,385v260.5c-20.7,24.7-47.2,44.5-77.2,57.4V385H679.1z"/>
		</g>
	</g>
</g>
</svg>
